<svg xmlns="http://www.w3.org/2000/svg" version="1.0" width="3720" height="5940" preserveAspectRatio="xMidYMid meet" style=""><rect id="backgroundrect" width="100%" height="100%" x="0" y="0" fill="none" stroke="none"/>



<g class="currentLayer" style=""><title>Layer 1</title><g id="layer101" fill="#010000" stroke="none">
 <path d="M1805 5928 c-2 -7 -15 -67 -30 -133 -89 -411 -231 -806 -445 -1240 -174 -351 -268 -510 -682 -1150 -249 -386 -455 -749 -529 -933 -92 -231 -124 -430 -116 -710 6 -208 30 -349 88 -523 185 -550 656 -1002 1212 -1163 176 -51 283 -68 477 -73 351 -11 623 45 917 187 302 145 535 349 723 633 129 194 204 364 255 581 38 160 48 278 42 479 -9 307 -49 455 -218 797 -137 278 -184 359 -453 775 -256 397 -321 500 -431 690 -330 568 -543 1098 -659 1635 l-33 155 -57 3 c-39 2 -58 -1 -61 -10z" id="svg_1"/>
 </g><g id="layer102" fill="#0bd50b" stroke="none" class="selected" fill-opacity="1">
 <path d="M1845 5523 c-105 -376 -217 -666 -395 -1028 -163 -333 -259 -494 -643 -1089 -283 -439 -496 -810 -566 -989 -72 -182 -101 -326 -108 -537 -9 -284 37 -519 152 -766 112 -243 332 -507 555 -667 192 -136 457 -247 705 -293 123 -23 467 -26 585 -6 443 78 822 290 1073 602 276 343 398 699 384 1130 -9 284 -50 426 -227 780 -124 248 -181 345 -408 695 -231 356 -357 558 -462 740 -273 473 -469 924 -585 1346 -21 74 -39 135 -40 137 -2 2 -11 -23 -20 -55z m230 -3237 c191 -62 342 -214 407 -411 19 -57 23 -92 23 -185 0 -99 -4 -126 -28 -195 -65 -190 -215 -340 -402 -402 -103 -34 -266 -38 -359 -10 -120 37 -187 77 -276 167 -90 90 -130 156 -166 276 -25 81 -25 247 0 328 58 191 197 349 367 417 142 56 291 61 434 15z" id="svg_2" fill="#0bd50b" fill-opacity="1"/>
 </g></g></svg>